<svg xmlns="http://www.w3.org/2000/svg" viewBox="0 0 512 512" role="img" aria-label="Brothers House">
  <rect width="512" height="512" rx="112" fill="#f4f8fc" />
  <path d="M34 332 124 210l55 70 88-118 103 132 60-58 82 101v175H34Z" fill="#4f9fe8" opacity="0.28" />
  <circle cx="382" cy="118" r="42" fill="#f7c948" />
  <path d="M54 374c70-77 136-96 198-61 63 36 124 20 213-48" fill="none" stroke="#4f9fe8" stroke-width="26" stroke-linecap="round" opacity="0.72" />
  <path d="M58 302 147 226l89 76v110H58Z" fill="#3b82c4" />
  <path d="M38 305 147 208l109 97-19 24-90-78-90 78Z" fill="#1e4f7a" />
  <rect x="111" y="318" width="31" height="31" rx="7" fill="#1e4f7a" />
  <rect x="154" y="318" width="31" height="31" rx="7" fill="#1e4f7a" />
  <path d="M277 295 376 212l99 83v117H277Z" fill="#1e4f7a" />
  <path d="M257 299 376 196l119 103-19 25-100-84-100 84Z" fill="#3b82c4" />
  <rect x="340" y="316" width="31" height="31" rx="7" fill="#f4f8fc" />
  <rect x="383" y="316" width="31" height="31" rx="7" fill="#f4f8fc" />
  <path d="M238 512c12-100 18-174 20-224 5 53 15 127 32 224Z" fill="#45b8b0" />
  <path d="M258 289c-32 54-81 101-148 141M260 289c42 58 89 105 141 141" fill="none" stroke="#45b8b0" stroke-width="30" stroke-linecap="round" stroke-linejoin="round" />
  <path d="M257 300c-10 51-13 121-6 212" fill="none" stroke="#f4f8fc" stroke-width="9" stroke-linecap="round" opacity="0.72" />
</svg>
