<svg xmlns="http://www.w3.org/2000/svg" viewBox="0 0 512 512">
  <defs>
    <linearGradient id="bg" x1="0%" x2="100%" y1="0%" y2="100%">
      <stop offset="0%" stop-color="#eefabd" />
      <stop offset="100%" stop-color="#dbe9d6" />
    </linearGradient>
    <linearGradient id="roof" x1="0%" x2="100%" y1="0%" y2="100%">
      <stop offset="0%" stop-color="#6984A9" />
      <stop offset="100%" stop-color="#263B6A" />
    </linearGradient>
  </defs>
  <rect width="512" height="512" rx="120" fill="url(#bg)" />
  <rect x="56" y="56" width="400" height="400" rx="104" fill="#346739" opacity="0.08" />
  <path d="M116 296h104l88-112 88 112h104l-42-52h-34l-30 38-86-108-86 108-30-38h-34z" fill="url(#roof)" />
  <path d="M220 296h40l40-50 40 50h40l-80-102z" fill="#346739" />
  <rect x="236" y="250" width="18" height="18" rx="4" fill="#eefabd" />
  <rect x="258" y="250" width="18" height="18" rx="4" fill="#eefabd" />
  <rect x="236" y="272" width="18" height="18" rx="4" fill="#eefabd" />
  <rect x="258" y="272" width="18" height="18" rx="4" fill="#eefabd" />
  <text x="256" y="380" text-anchor="middle" font-size="50" font-family="Arial, sans-serif" font-weight="700" fill="#234a28">HUB</text>
</svg>
